# xmcd
#
# Track frame offsets:
#	150
#	14714
#	36404
#	50935
#	61608
#	79444
#	99639
#	114915
#	130929
#	148673
#	157056
#	174784
#
# Disc length: 2607 seconds
# Revision: 0
# Processed by: cddbd v1.5.2PL0 Copyright (c) Steve Scherf et al.
# Submitted via: dBpowerAMP V12.0
#
DISCID=a80a2d0c
DTITLE=The Steel Wheels - Lay Down Lay Low
DYEAR=2012
DGENRE=Americana
TTITLE0=Breaking Like the Sun
TTITLE1=Lay Down Lay Low
TTITLE2=Rain in the Valley
TTITLE3=Nola's First Dance
TTITLE4=Andrea
TTITLE5=Halfway to Heaven
TTITLE6=Indian Trail
TTITLE7=Endure
TTITLE8=Know Her Name
TTITLE9=Fridley's Gap
TTITLE10=Spider Wings
TTITLE11=One Night
EXTD=
EXTT0=
EXTT1=
EXTT2=
EXTT3=
EXTT4=
EXTT5=
EXTT6=
EXTT7=
EXTT8=
EXTT9=
EXTT10=
EXTT11=
PLAYORDER=
